<svg xmlns="http://www.w3.org/2000/svg" width="1541.967" height="909.324" viewBox="0 0 1541.967 909.324">
  <g id="fond" transform="translate(-33.837 0.404)">
    <path id="Tracé_325" data-name="Tracé 325" d="M605.916,177.446a175.636,175.636,0,0,1-37.127,107.133c-9.769-2.689-19.251-5.706-28.63-9.154-8.681-3.079-17.219-6.588-25.572-10.323a11.583,11.583,0,0,0-1.642-.883c-2.791-1.478-5.767-2.955-8.722-4.166a168.756,168.756,0,0,0-24.567-8.887,180.24,180.24,0,0,0-171.248,40.985,23.224,23.224,0,0,0-2.2,2.073,42.775,42.775,0,0,0-3.3,3.079,171.105,171.105,0,0,1-21.057,18.1,179.393,179.393,0,0,1-106.476,34.767c-2.073,0-4.166-.041-6.2-.1a178.075,178.075,0,0,1-42.792-6.691,170.751,170.751,0,0,1-24.505-8.825c-2.648-1.314-5.275-2.524-7.963-3.735-3.674-1.7-7.45-3.407-11.185-4.987-.062-.062-.1-.062-.164-.123a174.239,174.239,0,0,1-30.929-24.731c-3.8-3.776-7.532-7.84-11.144-12.232A176.848,176.848,0,0,1,0,177.508a164.361,164.361,0,0,1,18.061-15.536A175.057,175.057,0,0,1,121.13,126.712c.924-.062,1.868-.062,2.853-.062.924,0,1.868,0,2.791.062-.062-.944-.062-1.929-.062-2.853,0-.944,0-1.868.062-2.75A174.212,174.212,0,0,1,161.931,18.1,172.909,172.909,0,0,1,177.57,0a177.25,177.25,0,0,1,111.3,40.534c3.571,2.955,7.019,6.137,10.262,9.153l1.97,2.032c.657.657,1.314,1.314,1.929,2.032.657-.718,1.313-1.375,1.97-2.032.718-.718,1.314-1.375,2.032-1.97,3.181-3.181,6.629-6.3,10.139-9.215A176.685,176.685,0,0,1,428.408,0a175.7,175.7,0,0,1,50.857,121.109c.062.883.062,1.806.062,2.75,0,.924,0,1.909-.062,2.853.985-.062,1.97-.062,2.914-.062.862,0,1.868,0,2.73.062a175.461,175.461,0,0,1,103.028,35.259A162.224,162.224,0,0,1,605.916,177.446Z" transform="translate(33.837 302.554) rotate(-30)" fill="#644a82"/>
    <path id="Tracé_325-2" data-name="Tracé 325" d="M605.916,177.446a175.636,175.636,0,0,1-37.127,107.133c-9.769-2.689-19.251-5.706-28.63-9.154-8.681-3.079-17.219-6.588-25.572-10.323a11.58,11.58,0,0,0-1.642-.883c-2.791-1.478-5.767-2.955-8.722-4.166a168.759,168.759,0,0,0-24.567-8.887,180.24,180.24,0,0,0-171.248,40.986,23.224,23.224,0,0,0-2.2,2.073,42.775,42.775,0,0,0-3.3,3.079,171.105,171.105,0,0,1-21.057,18.1,179.393,179.393,0,0,1-106.476,34.767c-2.073,0-4.166-.041-6.2-.1a178.075,178.075,0,0,1-42.792-6.691,170.751,170.751,0,0,1-24.505-8.825c-2.648-1.314-5.275-2.524-7.963-3.735-3.674-1.7-7.45-3.407-11.185-4.987-.062-.062-.1-.062-.164-.123a174.239,174.239,0,0,1-30.929-24.731c-3.8-3.776-7.532-7.84-11.144-12.232A176.848,176.848,0,0,1,0,177.508a164.361,164.361,0,0,1,18.061-15.536,175.057,175.057,0,0,1,103.069-35.26c.924-.062,1.868-.062,2.853-.062.924,0,1.868,0,2.791.062-.062-.944-.062-1.929-.062-2.853,0-.944,0-1.868.062-2.75A174.213,174.213,0,0,1,161.931,18.1,172.909,172.909,0,0,1,177.57,0a177.25,177.25,0,0,1,111.3,40.534c3.571,2.955,7.019,6.137,10.262,9.153l1.97,2.032c.657.657,1.314,1.314,1.929,2.032.657-.718,1.313-1.375,1.97-2.032.718-.718,1.314-1.375,2.032-1.97,3.181-3.181,6.629-6.3,10.139-9.215A176.684,176.684,0,0,1,428.408,0a175.7,175.7,0,0,1,50.857,121.109c.062.883.062,1.806.062,2.75,0,.924,0,1.909-.062,2.853.985-.062,1.97-.062,2.914-.062.862,0,1.868,0,2.73.062a175.461,175.461,0,0,1,103.028,35.259A162.224,162.224,0,0,1,605.916,177.446Z" transform="translate(1575.804 605.963) rotate(150)" fill="#f7b801"/>
  </g>
</svg>
