<svg id="Groupe_46" data-name="Groupe 46" xmlns="http://www.w3.org/2000/svg" xmlns:xlink="http://www.w3.org/1999/xlink" width="121.999" height="100.271" viewBox="0 0 121.999 100.271">
  <defs>
    <clipPath id="clip-path">
      <rect id="Rectangle_44" data-name="Rectangle 44" width="121.999" height="100.271" fill="#644a82"/>
    </clipPath>
  </defs>
  <g id="Groupe_44" data-name="Groupe 44" clip-path="url(#clip-path)">
    <path id="Tracé_313" data-name="Tracé 313" d="M81.592,101.225l.72.449L80.769,103.7a1.76,1.76,0,0,0-1.15.149,10.087,10.087,0,0,1-2.814.206,6.385,6.385,0,0,1-1.262-.14,3.515,3.515,0,0,0-1.823.1c-.589.178-.785-.365-.346-.645a3.665,3.665,0,0,1,1.318-.523,8.288,8.288,0,0,1,1.374-.009s.243-.645-.963-.6a.568.568,0,0,1-.121.009,32.436,32.436,0,0,0-3.5.58s-1.842-.1-.682-.636a4.529,4.529,0,0,1,1.967-.422,7.464,7.464,0,0,1-1.826-.26c-.234-.178-.851-.187,1.215-.739,0,0-1.187-.729-1.384-1.234s.982.009.982.009,2.692,1.1,3.2.944-1.047-.86-1.29-1.356a1.173,1.173,0,0,1-.028-.935s.542.308,1.253.794a13.131,13.131,0,0,0,3.553,1.543,7.714,7.714,0,0,1,3.15.682" transform="translate(-50.854 -70.919)" fill="#644a82"/>
    <path id="Tracé_314" data-name="Tracé 314" d="M219.372,137.2l.009.009a.089.089,0,0,0-.047.037Z" transform="translate(-158.391 -99.079)" fill="#644a82"/>
    <path id="Tracé_315" data-name="Tracé 315" d="M222.09,26.8s-.019-.514,3,1.991c0,0-3.076.1-3-1.991" transform="translate(-160.38 -19.32)" fill="#644a82"/>
    <path id="Tracé_316" data-name="Tracé 316" d="M182.819,75.477a12.157,12.157,0,0,0-8.919-3.44,18.648,18.648,0,0,0-6.722,1.44c-.5.206-.767.346-.767.346-.552-6.226,0-7.965,0-7.965.86-1.72,4.4-4.5,5.927-5.637L169.8,63.492C172.685,61.9,175,67.6,175,67.6c3.319-5.207,7.572-2.131,7.413-2.842-.14-.664-.71-3-.776-3.291.234.4,2.776,5.02,3.384,8.339a6.241,6.241,0,0,1-2.206,5.675" transform="translate(-119.996 -43.487)" fill="#644a82"/>
    <path id="Tracé_317" data-name="Tracé 317" d="M230.148,45.231c.009.318-.252.243-.252.243.047.187-.047.411-.636.206-.552-.206-.963-1.066-1.01-1.178a5.971,5.971,0,0,0,.944-.009c.673-.056.608.3.608.3.271-.122.336.112.346.439" transform="translate(-164.829 -32.126)" fill="#644a82"/>
    <path id="Tracé_318" data-name="Tracé 318" d="M227.828,26.306a.183.183,0,0,1-.14.224h-.038a.179.179,0,0,1-.178-.149,1.034,1.034,0,0,0-1.075-.748h-.084a6.885,6.885,0,0,1-1.384-.009.187.187,0,0,1-.131-.234.189.189,0,0,1,.234-.122,2.279,2.279,0,0,0,.393.019c.187,0,.468-.009.87-.028a1.415,1.415,0,0,1,1.533,1.047" transform="translate(-162.332 -18.24)" fill="#644a82"/>
    <path id="Tracé_319" data-name="Tracé 319" d="M184.342,10.225c0-1.58.552-2.216,1.739-2.094a7.764,7.764,0,0,0,1.739.038s-2.683-2.524-1.739-4.254S192.578-1.694,197.5.83s3.8,5.684,3.8,5.684l-.047-.038-.009-.009-2.309-2s-2.926.365-3.468,1.5-1.655.393-1.655.393l-.935,1.374-2.5-.44s.739,5.254-2.094,7.348c0,0-3.945-2.842-3.945-4.412" transform="translate(-133.121 0.001)" fill="#644a82"/>
    <path id="Tracé_320" data-name="Tracé 320" d="M298.092,54.85l-1.542-2.029.72-.449a7.536,7.536,0,0,1,3.15-.682,13.133,13.133,0,0,0,3.552-1.542c.711-.486,1.253-.795,1.253-.795a1.151,1.151,0,0,1-.038.935c-.234.5-1.795,1.2-1.281,1.356s3.2-.944,3.2-.944,1.178-.514.981-.009-1.383,1.234-1.383,1.234c2.066.552,1.449.561,1.215.729a7.683,7.683,0,0,1-1.832.271,4.222,4.222,0,0,1,1.973.421c1.159.533-.682.636-.682.636a30.077,30.077,0,0,0-3.5-.58c-.038,0-.084-.009-.122-.009-1.206-.047-.963.6-.963.6a8.288,8.288,0,0,1,1.374.009,3.732,3.732,0,0,1,1.318.523c.439.281.243.823-.346.636a3.726,3.726,0,0,0-1.823-.1,5.7,5.7,0,0,1-1.262.14,10.388,10.388,0,0,1-2.814-.2,1.759,1.759,0,0,0-1.15-.149" transform="translate(-214.152 -35.64)" fill="#644a82"/>
    <path id="Tracé_321" data-name="Tracé 321" d="M1.421,102.457v.019c0-.009.009-.019.009-.028a.009.009,0,0,0-.009.009M121.99,112.32c-.14,0-.28,0-.421-.009a60.96,60.96,0,0,1-14.275-1.889c-.28-.065-.561-.14-.841-.215a.882.882,0,0,1-.149-.047c-1.664-.458-3.281-.972-4.88-1.561-1.477-.524-2.936-1.122-4.357-1.758a2,2,0,0,0-.28-.149c-.477-.253-.982-.5-1.486-.71a29.087,29.087,0,0,0-4.188-1.515,30.71,30.71,0,0,0-29.186,6.983,4.4,4.4,0,0,0-.374.355,7.465,7.465,0,0,0-.561.523,29.266,29.266,0,0,1-3.59,3.085,30.586,30.586,0,0,1-18.145,5.927c-.355,0-.71-.009-1.056-.019a30.319,30.319,0,0,1-7.292-1.141,29,29,0,0,1-4.179-1.505c-.449-.224-.9-.43-1.356-.636-.626-.29-1.271-.58-1.907-.851-.009-.009-.019-.009-.028-.019-1.159-.486-2.328-.935-3.525-1.355-1.43-.5-2.879-.963-4.366-1.356-.252-.065-.514-.14-.776-.2A60.474,60.474,0,0,0,.43,112.339c-.14,0-.28-.009-.42,0C0,112.5,0,112.656,0,112.815c0,.327,0,.645.009.963a61.008,61.008,0,0,0,52.464,59.447c.009-.121.019-.243.028-.364v-.047c0-.028.009-.065.009-.093.009-.121.028-.252.037-.383s.028-.271.038-.421v-.047c0-.037.009-.065.009-.1.037-.28.065-.57.1-.86a85.509,85.509,0,0,1,1.608-8.591c.1-.44.2-.832.28-1.159.028-.122.056-.243.084-.355.131-.533.215-.832.215-.832.318-.318.626-.636.879-.935,2.281-2.5,2.945-4.216,3.1-5.235a2.084,2.084,0,0,0-.037-1.131c-.215-.4-.411-.813-.608-1.225-.009-.009-.009-.019-.019-.028-3.786-7.881-5.2-17.491-5.59-20.773-.093-.739-.131-1.168-.131-1.168l.262.028a8.02,8.02,0,0,0,1.7.019,7.156,7.156,0,0,0,.982-.168c.206-.056.4-.112.58-.178a4.034,4.034,0,0,0,1.692-1.094c3.59,3.758,5.562,8.862,6.656,13.621a56.816,56.816,0,0,1,1.113,7.133c.047.561.084,1.1.122,1.608.047.739.075,1.4.093,1.982.019.561.028,1.047.037,1.43.009.121.009.224.009.327a5.386,5.386,0,0,1-.383,2.169,5.974,5.974,0,0,1-.439.879c-.814,1.355-1.982,2.2-2.178,2.9-.206.682-4.141,7.068-7.068,11.751-.1.168-.206.327-.3.477-.018.028-.028.047-.047.075-.047.075-.093.14-.14.206-.019.028-.028.047-.047.075-.093.159-.2.318-.29.477a.125.125,0,0,0-.028.037.32.32,0,0,1-.028.056,1.668,1.668,0,0,0-.121.206c.477.047.954.093,1.43.131.075.009.14.009.215.019l1.29.084c.234.009.477.028.71.038l.72.028h.093c.617.019,1.253.028,1.879.028s1.262-.009,1.879-.028h.094c.168-.009.327-.009.486-.018.309-.009.617-.028.935-.047a.2.2,0,0,0,.075-.009c.608-.037,1.206-.075,1.814-.131.44-.028.879-.075,1.318-.122.309-.028.617-.065.926-.1l.626-.084c.383-.047.757-.1,1.141-.159.449-.065.907-.141,1.356-.224s.879-.159,1.318-.243.86-.178,1.29-.271.841-.2,1.262-.29.823-.206,1.234-.318.8-.215,1.206-.336a61.026,61.026,0,0,0,44.032-57.653c.009-.318.009-.636.009-.963,0-.168,0-.337-.009-.5M71.47,143.768a48.649,48.649,0,0,1-4.8,7.507l.009-.178.094-2.692.075-2.281.7-20.314v-.374l.739-.43.841-.5,1.393-.823.822-.5,1.056-.626,2.234-1.318c2.936,7.937-.056,16.566-3.169,22.53m48.986-41.928c.038.187.075.383.1.57v.009c0,.009.009.019.009.028v-.019l-.112-.589" transform="translate(0 -73.543)" fill="#644a82"/>
  </g>
</svg>
